<svg width="40" height="40" viewBox="0 0 40 40" fill="none" xmlns="http://www.w3.org/2000/svg">
<g clip-path="url(#clip0_123_366)">
<circle cx="20" cy="20" r="20" fill="white"/>
<path d="M29.3008 15.6445C29.7227 17.1211 29.7227 20.2852 29.7227 20.2852C29.7227 20.2852 29.7227 23.4141 29.3008 24.9258C29.0898 25.7695 28.4219 26.4023 27.6133 26.6133C26.1016 27 20.125 27 20.125 27C20.125 27 14.1133 27 12.6016 26.6133C11.793 26.4023 11.125 25.7695 10.9141 24.9258C10.4922 23.4141 10.4922 20.2852 10.4922 20.2852C10.4922 20.2852 10.4922 17.1211 10.9141 15.6445C11.125 14.8008 11.793 14.1328 12.6016 13.9219C14.1133 13.5 20.125 13.5 20.125 13.5C20.125 13.5 26.1016 13.5 27.6133 13.9219C28.4219 14.1328 29.0898 14.8008 29.3008 15.6445ZM18.1562 23.1328L23.1484 20.2852L18.1562 17.4375V23.1328Z" fill="#001ED3"/>
</g>
<defs>
<clipPath id="clip0_123_366">
<rect width="40" height="40" fill="white"/>
</clipPath>
</defs>
</svg>
